<svg width="176" height="48" viewBox="0 0 176 48" fill="none" xmlns="http://www.w3.org/2000/svg">
<rect width="48" height="48" rx="24" fill="#2F5FAC"/>
<path d="M24 16.3608C19.781 16.3608 16.3611 19.7808 16.3611 23.9997C16.3611 27.8123 19.1546 30.9725 22.8068 31.5462V26.2074H20.8665V23.9997H22.8068V22.3169C22.8068 20.4026 23.9465 19.3454 25.692 19.3454C26.5277 19.3454 27.4016 19.4943 27.4016 19.4943V21.3735H26.4391C25.4896 21.3735 25.1939 21.9624 25.1939 22.5667V23.9997H27.3122L26.9738 26.2074H25.1939V31.5462C28.8453 30.9733 31.6389 27.8115 31.6389 23.9997C31.6389 19.7808 28.2189 16.3608 24 16.3608Z" fill="white"/>
<rect x="64" width="48" height="48" rx="24" fill="#2F5FAC"/>
<path d="M88 16.3608C90.0755 16.3608 90.3344 16.3685 91.1487 16.4067C91.9623 16.4449 92.5161 16.5724 93.0034 16.7619C93.5076 16.9559 93.9323 17.2187 94.3571 17.6426C94.7455 18.0245 95.0461 18.4864 95.2378 18.9963C95.4265 19.4829 95.5548 20.0374 95.593 20.851C95.6289 21.6653 95.6389 21.9242 95.6389 23.9997C95.6389 26.0752 95.6312 26.3342 95.593 27.1485C95.5548 27.962 95.4265 28.5158 95.2378 29.0032C95.0466 29.5133 94.746 29.9753 94.3571 30.3568C93.9751 30.7451 93.5132 31.0457 93.0034 31.2376C92.5168 31.4263 91.9623 31.5546 91.1487 31.5928C90.3344 31.6287 90.0755 31.6386 88 31.6386C85.9245 31.6386 85.6655 31.631 84.8512 31.5928C84.0377 31.5546 83.4839 31.4263 82.9965 31.2376C82.4865 31.0462 82.0245 30.7456 81.6429 30.3568C81.2544 29.975 80.9538 29.5131 80.7621 29.0032C80.5727 28.5166 80.4451 27.962 80.4069 27.1485C80.371 26.3342 80.3611 26.0752 80.3611 23.9997C80.3611 21.9242 80.3687 21.6653 80.4069 20.851C80.4451 20.0367 80.5727 19.4836 80.7621 18.9963C80.9533 18.4861 81.2539 18.0241 81.6429 17.6426C82.0246 17.254 82.4866 16.9534 82.9965 16.7619C83.4839 16.5724 84.0369 16.4449 84.8512 16.4067C85.6655 16.3708 85.9245 16.3608 88 16.3608ZM88 20.1803C86.987 20.1803 86.0155 20.5827 85.2992 21.299C84.5829 22.0153 84.1805 22.9867 84.1805 23.9997C84.1805 25.0127 84.5829 25.9842 85.2992 26.7005C86.0155 27.4168 86.987 27.8192 88 27.8192C89.013 27.8192 89.9844 27.4168 90.7007 26.7005C91.417 25.9842 91.8194 25.0127 91.8194 23.9997C91.8194 22.9867 91.417 22.0153 90.7007 21.299C89.9844 20.5827 89.013 20.1803 88 20.1803ZM92.9653 19.9893C92.9653 19.7361 92.8647 19.4932 92.6856 19.3141C92.5065 19.1351 92.2636 19.0345 92.0104 19.0345C91.7571 19.0345 91.5143 19.1351 91.3352 19.3141C91.1561 19.4932 91.0555 19.7361 91.0555 19.9893C91.0555 20.2426 91.1561 20.4854 91.3352 20.6645C91.5143 20.8436 91.7571 20.9442 92.0104 20.9442C92.2636 20.9442 92.5065 20.8436 92.6856 20.6645C92.8647 20.4854 92.9653 20.2426 92.9653 19.9893ZM88 21.7081C88.6078 21.7081 89.1907 21.9495 89.6204 22.3793C90.0502 22.809 90.2916 23.3919 90.2916 23.9997C90.2916 24.6075 90.0502 25.1904 89.6204 25.6202C89.1907 26.05 88.6078 26.2914 88 26.2914C87.3922 26.2914 86.8093 26.05 86.3795 25.6202C85.9497 25.1904 85.7083 24.6075 85.7083 23.9997C85.7083 23.3919 85.9497 22.809 86.3795 22.3793C86.8093 21.9495 87.3922 21.7081 88 21.7081Z" fill="white"/>
<rect x="128" width="48" height="48" rx="24" fill="#2F5FAC"/>
<path d="M159.763 19.1539C159.179 19.4119 158.561 19.5813 157.928 19.6566C158.595 19.2574 159.095 18.6291 159.333 17.8889C158.707 18.2617 158.02 18.5229 157.304 18.6643C156.824 18.1498 156.186 17.8087 155.492 17.6938C154.797 17.5789 154.084 17.6968 153.463 18.0291C152.842 18.3613 152.349 18.8894 152.059 19.5311C151.769 20.1729 151.7 20.8924 151.861 21.5777C150.591 21.5141 149.348 21.184 148.214 20.6089C147.079 20.0338 146.078 19.2265 145.276 18.2395C144.992 18.7272 144.843 19.2817 144.844 19.846C144.844 20.9536 145.408 21.9322 146.265 22.5051C145.758 22.4891 145.261 22.3521 144.818 22.1056V22.1453C144.818 22.883 145.073 23.5979 145.54 24.1689C146.008 24.7399 146.658 25.1317 147.381 25.278C146.91 25.4056 146.416 25.4244 145.937 25.333C146.141 25.968 146.538 26.5233 147.073 26.9212C147.609 27.3191 148.255 27.5397 148.922 27.5521C148.259 28.0726 147.5 28.4573 146.689 28.6843C145.877 28.9113 145.029 28.9762 144.192 28.8752C145.653 29.8143 147.353 30.3129 149.089 30.3113C154.965 30.3113 158.179 25.443 158.179 21.221C158.179 21.0835 158.175 20.9445 158.169 20.8085C158.795 20.3564 159.335 19.7964 159.763 19.1547L159.763 19.1539Z" fill="white"/>
</svg>
