<svg width="348" height="351" viewBox="0 0 348 351" fill="none" xmlns="http://www.w3.org/2000/svg">
<path d="M337.788 280.053H312.423V280.244H337.788V280.053Z" fill="#EBEBEB"/>
<path d="M246.897 282.135H240.242V282.326H246.897V282.135Z" fill="#EBEBEB"/>
<path d="M311.658 272.951H296.961V273.143H311.658V272.951Z" fill="#EBEBEB"/>
<path d="M66.4857 274.236H33.4087V274.428H66.4857V274.236Z" fill="#EBEBEB"/>
<path d="M78.1574 274.236H73.3096V274.428H78.1574V274.236Z" fill="#EBEBEB"/>
<path d="M165.663 277.467H93.9185V277.658H165.663V277.467Z" fill="#EBEBEB"/>
<path d="M175.811 233.602H27.9252C26.7655 233.602 25.6532 233.142 24.8331 232.322C24.013 231.503 23.5522 230.391 23.5522 229.232V21.4863C23.5623 20.3339 24.0275 19.2321 24.8465 18.4208C25.6655 17.6094 26.7721 17.1543 27.9252 17.1543H175.811C176.385 17.1543 176.954 17.2673 177.484 17.487C178.015 17.7066 178.497 18.0285 178.903 18.4343C179.309 18.8401 179.631 19.3219 179.851 19.8522C180.071 20.3824 180.184 20.9507 180.184 21.5246V229.232C180.184 229.806 180.071 230.374 179.851 230.904C179.631 231.435 179.309 231.916 178.903 232.322C178.497 232.728 178.015 233.05 177.484 233.27C176.954 233.489 176.385 233.602 175.811 233.602ZM27.9252 17.3074C26.8169 17.3094 25.7544 17.7503 24.9707 18.5336C24.1869 19.3169 23.7457 20.3786 23.7437 21.4863V229.232C23.7457 230.34 24.1869 231.401 24.9707 232.185C25.7544 232.968 26.8169 233.409 27.9252 233.411H175.811C176.919 233.409 177.982 232.968 178.765 232.185C179.549 231.401 179.99 230.34 179.992 229.232V21.4863C179.99 20.3786 179.549 19.3169 178.765 18.5336C177.982 17.7503 176.919 17.3094 175.811 17.3074H27.9252Z" fill="#EBEBEB"/>
<path d="M341.464 233.602H193.579C192.419 233.602 191.306 233.142 190.486 232.322C189.666 231.503 189.206 230.391 189.206 229.232V21.4863C189.216 20.3339 189.681 19.2321 190.5 18.4208C191.319 17.6094 192.425 17.1543 193.579 17.1543H341.464C342.624 17.1543 343.736 17.6147 344.556 18.4343C345.376 19.2539 345.837 20.3655 345.837 21.5246V229.232C345.837 230.391 345.376 231.503 344.556 232.322C343.736 233.142 342.624 233.602 341.464 233.602ZM193.579 17.3074C192.47 17.3094 191.408 17.7503 190.624 18.5336C189.84 19.3169 189.399 20.3786 189.397 21.4863V229.232C189.399 230.34 189.84 231.401 190.624 232.185C191.408 232.968 192.47 233.409 193.579 233.411H341.464C342.573 233.409 343.635 232.968 344.419 232.185C345.202 231.401 345.644 230.34 345.646 229.232V21.4863C345.644 20.3786 345.202 19.3169 344.419 18.5336C343.635 17.7503 342.573 17.3094 341.464 17.3074H193.579Z" fill="#EBEBEB"/>
<path d="M346 268.732H-6.76758V268.032H346V268.732Z" fill="#EBEBEB"/>
<path d="M314.062 131.953H259.158L252.855 59.9082H307.759L314.062 131.953Z" fill="#F5F5F5"/>
<path d="M294.249 69.1997H266.579C266.403 69.1987 266.234 69.1324 266.103 69.0136C265.973 68.8949 265.892 68.7321 265.875 68.5568C265.866 68.4745 265.875 68.3912 265.901 68.3125C265.927 68.2337 265.969 68.1613 266.024 68.0999C266.08 68.0385 266.148 67.9896 266.224 67.9562C266.3 67.9228 266.382 67.9058 266.464 67.9063H294.135C294.312 67.9092 294.481 67.9772 294.611 68.0972C294.741 68.2172 294.822 68.3808 294.839 68.5568C294.849 68.6391 294.841 68.7225 294.816 68.8015C294.791 68.8804 294.748 68.9528 294.692 69.0139C294.636 69.075 294.568 69.1233 294.491 69.1553C294.415 69.1874 294.332 69.2026 294.249 69.1997Z" fill="#E0E0E0"/>
<path d="M303.547 104.446H269.704C269.527 104.443 269.357 104.375 269.227 104.255C269.097 104.135 269.016 103.971 268.999 103.795C268.991 103.713 269 103.629 269.025 103.551C269.051 103.472 269.093 103.4 269.149 103.338C269.204 103.277 269.272 103.228 269.348 103.194C269.424 103.161 269.506 103.144 269.589 103.145H303.478C303.652 103.157 303.817 103.228 303.945 103.346C304.073 103.464 304.157 103.623 304.182 103.795C304.192 103.881 304.182 103.969 304.153 104.051C304.125 104.133 304.079 104.208 304.018 104.27C303.957 104.332 303.884 104.38 303.802 104.411C303.721 104.441 303.633 104.453 303.547 104.446Z" fill="#E0E0E0"/>
<path d="M303.877 108.235H265.186C265.009 108.232 264.839 108.164 264.709 108.044C264.579 107.924 264.498 107.76 264.481 107.584C264.473 107.502 264.481 107.419 264.507 107.34C264.533 107.261 264.575 107.189 264.631 107.127C264.686 107.066 264.754 107.017 264.83 106.984C264.906 106.95 264.988 106.933 265.071 106.934H303.769C303.943 106.946 304.108 107.017 304.236 107.135C304.364 107.253 304.448 107.412 304.474 107.584C304.483 107.667 304.474 107.751 304.447 107.83C304.421 107.91 304.378 107.982 304.322 108.044C304.265 108.105 304.196 108.154 304.12 108.187C304.043 108.22 303.96 108.236 303.877 108.235Z" fill="#E0E0E0"/>
<path d="M304.213 111.977H265.515C265.338 111.974 265.168 111.906 265.038 111.786C264.908 111.666 264.827 111.502 264.81 111.326C264.802 111.244 264.811 111.161 264.836 111.082C264.862 111.003 264.904 110.931 264.96 110.869C265.015 110.808 265.083 110.759 265.159 110.726C265.235 110.692 265.317 110.675 265.4 110.676H304.098C304.272 110.688 304.437 110.759 304.565 110.877C304.693 110.995 304.777 111.154 304.803 111.326C304.812 111.409 304.803 111.492 304.777 111.571C304.751 111.649 304.709 111.722 304.654 111.783C304.598 111.845 304.53 111.894 304.454 111.927C304.378 111.96 304.296 111.977 304.213 111.977Z" fill="#E0E0E0"/>
<path d="M304.543 115.743H265.875C265.695 115.746 265.519 115.686 265.379 115.573C265.239 115.459 265.143 115.3 265.109 115.123C265.101 115.041 265.109 114.958 265.135 114.879C265.161 114.8 265.203 114.728 265.259 114.666C265.314 114.605 265.382 114.556 265.458 114.523C265.534 114.489 265.616 114.472 265.699 114.473H304.397C304.574 114.476 304.744 114.544 304.874 114.664C305.004 114.784 305.085 114.947 305.102 115.123C305.106 115.201 305.095 115.278 305.069 115.351C305.043 115.424 305.003 115.492 304.951 115.549C304.899 115.607 304.836 115.654 304.766 115.687C304.696 115.72 304.62 115.739 304.543 115.743Z" fill="#E0E0E0"/>
<path d="M304.872 119.508H270.983C270.809 119.496 270.644 119.425 270.516 119.307C270.388 119.188 270.304 119.03 270.279 118.858C270.27 118.775 270.279 118.692 270.305 118.613C270.33 118.535 270.372 118.462 270.428 118.401C270.484 118.339 270.552 118.29 270.628 118.257C270.703 118.224 270.785 118.207 270.868 118.207H304.757C304.934 118.21 305.104 118.278 305.234 118.398C305.364 118.518 305.445 118.682 305.462 118.858C305.47 118.94 305.461 119.023 305.436 119.102C305.41 119.181 305.368 119.253 305.312 119.315C305.257 119.376 305.189 119.425 305.113 119.458C305.037 119.492 304.955 119.509 304.872 119.508Z" fill="#E0E0E0"/>
<path d="M305.201 123.274H266.503C266.329 123.262 266.164 123.191 266.036 123.073C265.908 122.955 265.824 122.796 265.798 122.624C265.789 122.541 265.798 122.457 265.825 122.379C265.851 122.3 265.894 122.227 265.95 122.166C266.007 122.105 266.076 122.057 266.153 122.025C266.23 121.993 266.312 121.978 266.396 121.981H305.086C305.263 121.982 305.432 122.048 305.562 122.167C305.692 122.286 305.774 122.448 305.791 122.624C305.799 122.706 305.791 122.789 305.765 122.868C305.739 122.947 305.697 123.019 305.641 123.081C305.586 123.142 305.518 123.191 305.442 123.224C305.366 123.258 305.284 123.275 305.201 123.274Z" fill="#E0E0E0"/>
<path d="M305.53 127.04H266.832C266.658 127.028 266.493 126.957 266.365 126.838C266.237 126.72 266.153 126.562 266.127 126.389C266.118 126.307 266.128 126.223 266.154 126.144C266.18 126.065 266.223 125.993 266.28 125.932C266.336 125.871 266.405 125.823 266.482 125.791C266.559 125.759 266.641 125.744 266.725 125.746H305.415C305.592 125.747 305.761 125.814 305.891 125.933C306.021 126.051 306.103 126.214 306.12 126.389C306.129 126.472 306.12 126.555 306.094 126.634C306.068 126.712 306.026 126.785 305.97 126.846C305.915 126.908 305.847 126.957 305.771 126.99C305.695 127.023 305.613 127.04 305.53 127.04Z" fill="#E0E0E0"/>
<path d="M291.385 73.5005H270.202C270.025 73.4975 269.855 73.4296 269.725 73.3096C269.595 73.1896 269.514 73.0259 269.497 72.8499C269.487 72.7673 269.495 72.6835 269.521 72.6042C269.546 72.525 269.588 72.452 269.644 72.3904C269.7 72.3287 269.768 72.2798 269.845 72.2468C269.921 72.2138 270.004 72.1977 270.087 72.1993H291.27C291.447 72.2023 291.617 72.2703 291.747 72.3903C291.877 72.5103 291.958 72.6739 291.975 72.8499C291.985 72.9325 291.977 73.0163 291.952 73.0956C291.926 73.1748 291.884 73.2478 291.828 73.3094C291.772 73.3711 291.704 73.4201 291.628 73.453C291.551 73.486 291.468 73.5022 291.385 73.5005Z" fill="#E0E0E0"/>
<path d="M288.299 77.8036H274.039C273.862 77.8006 273.692 77.7327 273.562 77.6127C273.432 77.4927 273.351 77.329 273.334 77.153C273.324 77.0707 273.332 76.9873 273.358 76.9084C273.383 76.8295 273.425 76.757 273.481 76.6959C273.537 76.6348 273.606 76.5866 273.682 76.5545C273.759 76.5224 273.841 76.5073 273.924 76.5101H288.192C288.367 76.5128 288.536 76.5797 288.666 76.6982C288.796 76.8166 288.878 76.9784 288.896 77.153C288.905 77.236 288.896 77.32 288.87 77.3992C288.844 77.4785 288.801 77.5513 288.744 77.6128C288.688 77.6743 288.619 77.7231 288.542 77.756C288.465 77.7889 288.382 77.8051 288.299 77.8036Z" fill="#E0E0E0"/>
<path opacity="0.5" d="M303.646 98.1467H263.654L262.313 82.8086H302.306L303.646 98.1467Z" fill="#E0E0E0"/>
<path d="M92.1196 180.421H124.204L127.887 138.367H95.8026L92.1196 180.421Z" fill="#F5F5F5"/>
<path d="M103.687 143.974H119.762C119.864 143.971 119.961 143.934 120.036 143.87C120.111 143.806 120.159 143.718 120.171 143.624C120.176 143.579 120.171 143.534 120.156 143.491C120.141 143.448 120.117 143.409 120.084 143.376C120.051 143.343 120.011 143.316 119.967 143.299C119.923 143.281 119.875 143.273 119.826 143.274H103.752C103.649 143.274 103.55 143.311 103.475 143.375C103.399 143.44 103.352 143.529 103.343 143.624C103.338 143.669 103.342 143.714 103.357 143.757C103.372 143.799 103.397 143.839 103.43 143.872C103.462 143.905 103.502 143.931 103.546 143.949C103.591 143.967 103.639 143.975 103.687 143.974Z" fill="#E0E0E0"/>
<path d="M98.0743 164.3H117.659C117.762 164.3 117.86 164.263 117.935 164.199C118.01 164.134 118.057 164.045 118.066 163.95C118.072 163.905 118.067 163.86 118.052 163.817C118.037 163.775 118.013 163.735 117.98 163.702C117.948 163.669 117.908 163.643 117.864 163.625C117.819 163.607 117.772 163.599 117.724 163.6H98.144C98.0415 163.601 97.9431 163.638 97.8673 163.702C97.7914 163.767 97.7432 163.855 97.7315 163.95C97.727 163.995 97.7325 164.04 97.7477 164.082C97.763 164.124 97.7875 164.163 97.8198 164.196C97.8521 164.229 97.8914 164.256 97.9353 164.274C97.9791 164.292 98.0265 164.301 98.0743 164.3Z" fill="#E0E0E0"/>
<path d="M98.0754 166.402H120.464C120.566 166.401 120.665 166.365 120.74 166.3C120.816 166.235 120.862 166.147 120.872 166.052C120.877 166.007 120.872 165.962 120.857 165.919C120.842 165.876 120.818 165.837 120.785 165.804C120.753 165.771 120.713 165.744 120.669 165.727C120.624 165.709 120.577 165.7 120.528 165.701H98.1397C98.0377 165.703 97.9399 165.74 97.8648 165.804C97.7897 165.869 97.7425 165.957 97.7321 166.052C97.7267 166.096 97.7317 166.142 97.7466 166.184C97.7615 166.227 97.786 166.266 97.8185 166.3C97.851 166.333 97.8908 166.359 97.9351 166.377C97.9794 166.394 98.0272 166.403 98.0754 166.402Z" fill="#E0E0E0"/>
<path d="M97.3846 168.506H120.452C120.557 168.504 120.658 168.467 120.735 168.402C120.812 168.338 120.861 168.25 120.872 168.155C120.877 168.11 120.872 168.065 120.857 168.022C120.842 167.98 120.816 167.94 120.783 167.907C120.749 167.874 120.708 167.848 120.663 167.83C120.617 167.812 120.568 167.804 120.518 167.805H97.4509C97.3458 167.807 97.245 167.843 97.1677 167.908C97.0904 167.972 97.0417 168.06 97.031 168.155C97.0254 168.2 97.0305 168.245 97.0459 168.288C97.0612 168.331 97.0865 168.37 97.12 168.403C97.1535 168.436 97.1944 168.463 97.24 168.48C97.2857 168.498 97.335 168.506 97.3846 168.506Z" fill="#E0E0E0"/>
<path d="M97.3689 170.607H119.763C119.865 170.606 119.964 170.57 120.039 170.505C120.114 170.44 120.161 170.352 120.171 170.257C120.176 170.212 120.171 170.167 120.156 170.124C120.141 170.081 120.117 170.042 120.084 170.009C120.052 169.976 120.012 169.949 119.967 169.932C119.923 169.914 119.875 169.905 119.827 169.906H97.4386C97.3366 169.908 97.2388 169.945 97.1637 170.01C97.0886 170.074 97.0414 170.162 97.0309 170.257C97.0256 170.301 97.0304 170.346 97.045 170.388C97.0596 170.431 97.0836 170.47 97.1156 170.503C97.1475 170.536 97.1866 170.562 97.2303 170.58C97.2739 170.598 97.3212 170.607 97.3689 170.607Z" fill="#E0E0E0"/>
<path d="M97.3737 173.412H116.958C117.06 173.41 117.158 173.373 117.233 173.309C117.308 173.244 117.355 173.156 117.365 173.061C117.371 173.017 117.366 172.971 117.351 172.929C117.336 172.886 117.311 172.847 117.279 172.813C117.246 172.78 117.207 172.754 117.162 172.736C117.118 172.719 117.07 172.71 117.022 172.711H97.438C97.3361 172.713 97.2385 172.75 97.1635 172.814C97.0885 172.879 97.0413 172.967 97.0309 173.061C97.0255 173.106 97.0305 173.151 97.0454 173.194C97.0602 173.237 97.0848 173.276 97.1172 173.309C97.1497 173.342 97.1894 173.369 97.2336 173.386C97.2779 173.404 97.3256 173.413 97.3737 173.412Z" fill="#E0E0E0"/>
<path d="M96.6783 175.513H119.75C119.855 175.511 119.956 175.475 120.034 175.41C120.111 175.346 120.16 175.258 120.171 175.163C120.176 175.118 120.171 175.073 120.156 175.03C120.14 174.988 120.115 174.948 120.081 174.915C120.048 174.882 120.007 174.856 119.961 174.838C119.916 174.82 119.866 174.812 119.817 174.813H96.7502C96.6446 174.813 96.5431 174.85 96.4654 174.914C96.3877 174.979 96.3394 175.068 96.3298 175.163C96.3243 175.207 96.3293 175.252 96.3443 175.294C96.3594 175.337 96.3842 175.376 96.4171 175.409C96.45 175.442 96.4903 175.469 96.5353 175.487C96.5803 175.504 96.6291 175.514 96.6783 175.513Z" fill="#E0E0E0"/>
<path d="M96.673 177.617H119.061C119.163 177.616 119.262 177.58 119.337 177.515C119.412 177.45 119.459 177.362 119.469 177.266C119.475 177.222 119.471 177.177 119.456 177.134C119.442 177.091 119.418 177.052 119.386 177.019C119.354 176.985 119.315 176.959 119.27 176.941C119.226 176.924 119.179 176.915 119.131 176.916H96.7374C96.635 176.917 96.5366 176.953 96.4612 177.018C96.3859 177.083 96.339 177.171 96.3297 177.266C96.3244 177.311 96.3293 177.356 96.3442 177.399C96.3591 177.442 96.3836 177.481 96.4162 177.514C96.4487 177.548 96.4884 177.574 96.5327 177.592C96.577 177.609 96.6248 177.618 96.673 177.617Z" fill="#E0E0E0"/>
<path d="M105.097 146.076H117.649C117.754 146.075 117.855 146.039 117.932 145.974C118.009 145.909 118.057 145.821 118.067 145.725C118.072 145.681 118.067 145.636 118.052 145.594C118.037 145.552 118.013 145.513 117.98 145.479C117.947 145.446 117.907 145.42 117.863 145.402C117.818 145.384 117.77 145.375 117.721 145.375H105.163C105.059 145.377 104.959 145.414 104.882 145.478C104.805 145.543 104.757 145.631 104.746 145.725C104.74 145.77 104.745 145.815 104.761 145.858C104.776 145.901 104.801 145.94 104.834 145.973C104.868 146.007 104.908 146.033 104.954 146.051C104.999 146.068 105.048 146.077 105.097 146.076Z" fill="#E0E0E0"/>
<path d="M107.165 148.881H114.881C114.976 148.878 115.067 148.841 115.137 148.776C115.207 148.712 115.251 148.624 115.262 148.53C115.266 148.486 115.261 148.441 115.247 148.398C115.233 148.356 115.21 148.317 115.18 148.284C115.149 148.251 115.113 148.225 115.072 148.207C115.031 148.189 114.986 148.179 114.942 148.18H107.23C107.135 148.181 107.043 148.217 106.972 148.282C106.902 148.346 106.858 148.435 106.85 148.53C106.845 148.574 106.849 148.619 106.863 148.662C106.876 148.704 106.899 148.743 106.929 148.776C106.959 148.809 106.995 148.836 107.036 148.854C107.077 148.872 107.121 148.881 107.165 148.881Z" fill="#E0E0E0"/>
<path opacity="0.5" d="M97.73 160.795H121.478L122.276 151.684H98.5282L97.73 160.795Z" fill="#E0E0E0"/>
<path d="M147.168 116.945H205.664L212.388 40.1777H153.884L147.168 116.945Z" fill="#FAFAFA"/>
<path d="M168.275 50.0653H197.76C197.951 50.0662 198.135 49.9962 198.276 49.8688C198.418 49.7414 198.507 49.5659 198.526 49.3764C198.536 49.2888 198.527 49.2001 198.5 49.1162C198.472 49.0323 198.427 48.9551 198.368 48.8899C198.309 48.8247 198.236 48.7729 198.155 48.7381C198.074 48.7032 197.986 48.686 197.898 48.6876H168.413C168.222 48.6867 168.038 48.7567 167.897 48.8841C167.755 49.0114 167.666 49.187 167.647 49.3764C167.637 49.4641 167.646 49.5528 167.673 49.6367C167.701 49.7206 167.745 49.7978 167.805 49.863C167.864 49.9282 167.937 49.9799 168.018 50.0148C168.099 50.0497 168.187 50.0669 168.275 50.0653Z" fill="#E6E6E6"/>
<path d="M158.365 87.6297H194.467C194.658 87.6307 194.842 87.5606 194.983 87.4333C195.125 87.3059 195.214 87.1303 195.233 86.9409C195.242 86.8528 195.232 86.7639 195.203 86.68C195.175 86.5961 195.13 86.5191 195.07 86.4541C195.01 86.389 194.937 86.3374 194.855 86.3026C194.774 86.2678 194.686 86.2505 194.597 86.252H158.488C158.297 86.2511 158.113 86.3211 157.971 86.4485C157.83 86.5759 157.741 86.7514 157.722 86.9409C157.712 87.0299 157.721 87.12 157.749 87.205C157.777 87.29 157.823 87.3679 157.885 87.4334C157.946 87.4988 158.02 87.5503 158.103 87.5842C158.186 87.6181 158.275 87.6336 158.365 87.6297Z" fill="#E6E6E6"/>
<path d="M158.02 91.6491H199.246C199.438 91.6499 199.623 91.5787 199.764 91.4498C199.906 91.3208 199.994 91.1434 200.012 90.9526C200.02 90.8645 200.01 90.7756 199.982 90.6917C199.954 90.6078 199.908 90.5308 199.848 90.4658C199.788 90.4007 199.715 90.3491 199.634 90.3143C199.552 90.2795 199.465 90.2623 199.376 90.2638H158.135C157.945 90.2628 157.76 90.3328 157.619 90.4602C157.477 90.5876 157.388 90.7631 157.369 90.9526C157.36 91.0423 157.371 91.1329 157.4 91.2183C157.429 91.3036 157.476 91.3818 157.537 91.4477C157.599 91.5136 157.674 91.5656 157.757 91.6004C157.84 91.6351 157.93 91.6517 158.02 91.6491Z" fill="#E6E6E6"/>
<path d="M157.668 95.6588H198.894C199.084 95.6597 199.268 95.5897 199.41 95.4623C199.552 95.3349 199.641 95.1594 199.66 94.9699C199.669 94.8819 199.66 94.7929 199.633 94.7086C199.606 94.6243 199.561 94.5467 199.502 94.4809C199.443 94.4151 199.37 94.3626 199.289 94.3269C199.208 94.2911 199.12 94.2729 199.032 94.2734H157.783C157.591 94.2727 157.406 94.3438 157.265 94.4727C157.123 94.6017 157.034 94.7791 157.017 94.9699C157.008 95.0593 157.019 95.1496 157.048 95.2346C157.077 95.3196 157.124 95.3973 157.186 95.4626C157.247 95.5279 157.322 95.5793 157.406 95.6131C157.489 95.6469 157.578 95.6625 157.668 95.6588Z" fill="#E6E6E6"/>
<path d="M157.316 99.6688H198.541C198.732 99.6698 198.916 99.5997 199.058 99.4723C199.199 99.345 199.288 99.1694 199.307 98.98C199.317 98.8923 199.308 98.8036 199.281 98.7197C199.254 98.6358 199.209 98.5586 199.149 98.4934C199.09 98.4282 199.017 98.3765 198.936 98.3416C198.855 98.3067 198.768 98.2895 198.679 98.2911H157.438C157.248 98.2902 157.064 98.3602 156.922 98.4876C156.781 98.615 156.692 98.7905 156.672 98.98C156.664 99.0687 156.674 99.1582 156.703 99.2427C156.731 99.3271 156.777 99.4045 156.838 99.4697C156.899 99.5349 156.973 99.5863 157.056 99.6207C157.138 99.655 157.227 99.6714 157.316 99.6688Z" fill="#E6E6E6"/>
<path d="M156.963 103.681H193.065C193.256 103.681 193.44 103.611 193.582 103.484C193.723 103.357 193.812 103.181 193.831 102.992C193.841 102.904 193.832 102.815 193.805 102.731C193.778 102.647 193.733 102.57 193.673 102.505C193.614 102.44 193.541 102.388 193.46 102.353C193.379 102.318 193.292 102.301 193.203 102.303H157.124C156.934 102.302 156.75 102.372 156.608 102.499C156.466 102.627 156.377 102.802 156.358 102.992C156.347 103.078 156.355 103.165 156.38 103.248C156.406 103.331 156.449 103.407 156.506 103.472C156.563 103.537 156.633 103.589 156.712 103.625C156.791 103.661 156.877 103.68 156.963 103.681Z" fill="#E6E6E6"/>
<path d="M156.611 107.698H197.837C198.028 107.699 198.213 107.628 198.355 107.499C198.497 107.37 198.585 107.192 198.603 107.002C198.614 106.914 198.606 106.825 198.579 106.74C198.552 106.656 198.507 106.578 198.448 106.512C198.388 106.447 198.315 106.395 198.233 106.361C198.151 106.326 198.063 106.31 197.975 106.313H156.734C156.543 106.312 156.359 106.382 156.217 106.509C156.076 106.637 155.987 106.812 155.968 107.002C155.956 107.091 155.965 107.182 155.993 107.268C156.02 107.354 156.066 107.433 156.127 107.499C156.189 107.566 156.264 107.618 156.347 107.652C156.431 107.686 156.521 107.702 156.611 107.698Z" fill="#E6E6E6"/>
<path d="M156.259 111.71H197.484C197.675 111.711 197.859 111.641 198.001 111.513C198.142 111.386 198.231 111.21 198.25 111.021C198.261 110.933 198.253 110.843 198.226 110.758C198.2 110.673 198.155 110.595 198.096 110.529C198.036 110.463 197.963 110.411 197.881 110.375C197.8 110.34 197.711 110.323 197.622 110.324H156.358C156.167 110.324 155.982 110.395 155.84 110.524C155.698 110.653 155.61 110.83 155.592 111.021C155.582 111.112 155.592 111.204 155.621 111.291C155.651 111.378 155.699 111.457 155.763 111.523C155.826 111.588 155.904 111.639 155.99 111.672C156.075 111.704 156.167 111.717 156.259 111.71Z" fill="#E6E6E6"/>
<path d="M171.331 54.6573H193.885C194.076 54.6583 194.26 54.5882 194.401 54.4608C194.543 54.3335 194.632 54.1579 194.651 53.9685C194.662 53.8806 194.654 53.7913 194.627 53.7068C194.601 53.6224 194.556 53.5447 194.496 53.4792C194.436 53.4137 194.363 53.362 194.281 53.3275C194.2 53.2931 194.112 53.2767 194.023 53.2796H171.453C171.263 53.2787 171.079 53.3487 170.937 53.4761C170.796 53.6035 170.707 53.779 170.688 53.9685C170.676 54.0577 170.685 54.1483 170.712 54.234C170.74 54.3196 170.786 54.3981 170.847 54.4638C170.909 54.5296 170.984 54.581 171.068 54.6145C171.151 54.6479 171.241 54.6625 171.331 54.6573Z" fill="#E6E6E6"/>
<path d="M174.616 59.2508H189.818C190.009 59.2518 190.193 59.1817 190.334 59.0544C190.476 58.927 190.565 58.7514 190.584 58.562C190.593 58.4739 190.583 58.385 190.554 58.3011C190.526 58.2172 190.481 58.1402 190.421 58.0752C190.361 58.0101 190.288 57.9585 190.206 57.9237C190.125 57.8889 190.037 57.8716 189.948 57.8731H174.739C174.548 57.8722 174.364 57.9422 174.222 58.0696C174.081 58.197 173.992 58.3725 173.973 58.562C173.964 58.6507 173.974 58.7403 174.003 58.8247C174.031 58.9091 174.078 58.9865 174.139 59.0517C174.199 59.1169 174.274 59.1683 174.356 59.2027C174.438 59.237 174.527 59.2534 174.616 59.2508Z" fill="#E6E6E6"/>
<path opacity="0.5" d="M158.265 80.9169H200.877L202.301 64.5762H159.697L158.265 80.9169Z" fill="#F0F0F0"/>
<path d="M317.08 174.906C316.881 177.202 310.003 178.511 301.763 177.791C293.522 177.072 286.943 174.6 287.15 172.288L288.031 162.178L317.953 164.795L317.08 174.906Z" fill="#EBEBEB"/>
<path opacity="0.6" d="M287.755 165.002C288.896 167.099 294.97 169.143 302.429 169.801C309.888 170.459 316.214 169.495 317.746 167.627L317.991 164.795L288.023 162.178L287.755 165.002Z" fill="#E0E0E0"/>
<path d="M302.352 168.775L278.251 158.986C278.141 158.942 278.047 158.865 277.983 158.766C277.919 158.666 277.887 158.549 277.893 158.431C277.899 158.313 277.942 158.199 278.016 158.106C278.09 158.014 278.191 157.947 278.305 157.914L303.915 150.574C304.043 150.525 304.185 150.525 304.313 150.574L328.261 162.254C328.367 162.305 328.455 162.389 328.511 162.493C328.568 162.596 328.591 162.715 328.576 162.832C328.562 162.95 328.511 163.059 328.431 163.146C328.351 163.234 328.246 163.293 328.131 163.318L302.689 168.775C302.579 168.809 302.462 168.809 302.352 168.775Z" fill="#EBEBEB"/>
<path d="M100.735 214.391H68.3774V219.366H100.735V214.391Z" fill="#F0F0F0"/>
<path d="M69.45 217.262H99.6857C100.35 217.262 100.987 217.525 101.457 217.995C101.926 218.464 102.19 219.101 102.19 219.764V268.542H66.9609V219.764C66.9599 219.436 67.024 219.11 67.1495 218.806C67.275 218.501 67.4594 218.225 67.6922 217.993C67.9249 217.76 68.2014 217.576 68.5057 217.45C68.81 217.325 69.1361 217.261 69.4653 217.262H69.45Z" fill="#E6E6E6"/>
<path d="M99.4097 208.268H69.71C68.1831 208.268 66.9453 209.505 66.9453 211.031V213.158C66.9453 214.684 68.1831 215.921 69.71 215.921H99.4097C100.937 215.921 102.174 214.684 102.174 213.158V211.031C102.174 209.505 100.937 208.268 99.4097 208.268Z" fill="#E6E6E6"/>
<path d="M106.731 268.542H90.2656V266.246L106.731 264.715V268.542Z" fill="#F5F5F5"/>
<path d="M235.823 197.407L225.101 173.611H199.966L203.795 195.876C203.877 196.397 203.752 196.93 203.445 197.359C203.139 197.788 202.676 198.08 202.156 198.172H201.834H190.821C190.539 198.172 190.268 198.284 190.069 198.484C189.869 198.683 189.757 198.954 189.757 199.236V200.415C189.757 200.697 189.869 200.968 190.069 201.167C190.268 201.367 190.539 201.479 190.821 201.479H235.034C235.341 201.479 235.635 201.357 235.852 201.14C236.068 200.923 236.19 200.629 236.19 200.323V199.098C236.187 198.515 236.061 197.939 235.823 197.407ZM224.197 194.468H212.135C211.755 194.468 211.387 194.333 211.097 194.088C210.807 193.843 210.613 193.503 210.55 193.128L208.727 182.62C208.691 182.411 208.696 182.197 208.743 181.991C208.789 181.784 208.876 181.589 208.999 181.416C209.121 181.243 209.277 181.096 209.456 180.984C209.635 180.871 209.835 180.795 210.044 180.76H210.32H219.441C219.751 180.759 220.055 180.847 220.315 181.014C220.576 181.181 220.783 181.42 220.912 181.701L225.668 192.21C225.778 192.457 225.825 192.727 225.805 192.997C225.785 193.267 225.698 193.527 225.553 193.755C225.407 193.982 225.206 194.17 224.97 194.302C224.733 194.433 224.468 194.503 224.197 194.506V194.468Z" fill="#263238"/>
<path opacity="0.8" d="M235.823 197.407L225.101 173.611H199.966L203.795 195.876C203.877 196.397 203.752 196.93 203.445 197.359C203.139 197.788 202.676 198.08 202.156 198.172H201.834H190.821C190.539 198.172 190.268 198.284 190.069 198.484C189.869 198.683 189.757 198.954 189.757 199.236V200.415C189.757 200.697 189.869 200.968 190.069 201.167C190.268 201.367 190.539 201.479 190.821 201.479H235.034C235.341 201.479 235.635 201.357 235.852 201.14C236.068 200.923 236.19 200.629 236.19 200.323V199.098C236.187 198.515 236.061 197.939 235.823 197.407ZM224.197 194.468H212.135C211.755 194.468 211.387 194.333 211.097 194.088C210.807 193.843 210.613 193.503 210.55 193.128L208.727 182.62C208.691 182.411 208.696 182.197 208.743 181.991C208.789 181.784 208.876 181.589 208.999 181.416C209.121 181.243 209.277 181.096 209.456 180.984C209.635 180.871 209.835 180.795 210.044 180.76H210.32H219.441C219.751 180.759 220.055 180.847 220.315 181.014C220.576 181.181 220.783 181.42 220.912 181.701L225.668 192.21C225.778 192.457 225.825 192.727 225.805 192.997C225.785 193.267 225.698 193.527 225.553 193.755C225.407 193.982 225.206 194.17 224.97 194.302C224.733 194.433 224.468 194.503 224.197 194.506V194.468Z" fill="white"/>
<path opacity="0.2" d="M224.197 194.468H212.135C211.755 194.468 211.387 194.333 211.097 194.088C210.807 193.843 210.613 193.503 210.55 193.128L208.727 182.62C208.691 182.411 208.696 182.197 208.743 181.991C208.789 181.784 208.876 181.589 208.999 181.416C209.121 181.243 209.276 181.096 209.456 180.984C209.635 180.871 209.835 180.795 210.044 180.76H210.32H219.441C219.751 180.758 220.054 180.847 220.315 181.014C220.576 181.181 220.783 181.419 220.911 181.701L225.667 192.21C225.778 192.457 225.825 192.727 225.805 192.997C225.785 193.266 225.698 193.527 225.552 193.755C225.407 193.982 225.206 194.17 224.97 194.301C224.733 194.433 224.468 194.503 224.197 194.506V194.468Z" fill="white"/>
<path d="M211.737 180.713H210.32C210.108 180.712 209.898 180.753 209.702 180.833C209.506 180.913 209.328 181.032 209.178 181.181C209.028 181.33 208.908 181.508 208.827 181.703C208.746 181.899 208.704 182.109 208.704 182.32C208.696 182.412 208.696 182.504 208.704 182.596L210.527 193.104C210.589 193.479 210.783 193.819 211.073 194.063C211.364 194.307 211.732 194.439 212.112 194.436H213.536C213.157 194.439 212.788 194.307 212.498 194.063C212.207 193.819 212.013 193.479 211.951 193.104L210.128 182.596C210.091 182.387 210.096 182.173 210.142 181.966C210.188 181.759 210.275 181.564 210.398 181.39C210.52 181.217 210.676 181.07 210.856 180.958C211.036 180.846 211.236 180.77 211.446 180.736C211.542 180.719 211.639 180.712 211.737 180.713Z" fill="#263238"/>
<path d="M237.247 197.407L226.525 173.627H225.108L235.83 197.407C236.083 197.962 236.213 198.565 236.213 199.175V200.407C236.211 200.713 236.089 201.006 235.872 201.222C235.656 201.439 235.363 201.561 235.057 201.563H236.481C236.787 201.561 237.08 201.439 237.297 201.222C237.513 201.006 237.636 200.713 237.638 200.407V199.175C237.635 198.565 237.502 197.962 237.247 197.407Z" fill="#263238"/>
<path opacity="0.2" d="M225.07 173.611H199.958L200.946 179.29H227.643L225.07 173.611Z" fill="black"/>
<path d="M261.096 176.106H153.961C153.027 176.121 152.124 175.765 151.452 175.117C150.779 174.469 150.39 173.581 150.369 172.647C150.358 172.491 150.358 172.335 150.369 172.18L157.14 94.8082C157.245 93.7467 157.737 92.7609 158.522 92.0383C159.307 91.3157 160.33 90.9069 161.398 90.8895H268.555C269.019 90.8794 269.48 90.961 269.912 91.1296C270.344 91.2983 270.738 91.5507 271.072 91.8722C271.406 92.1938 271.672 92.5781 271.857 93.0032C272.042 93.4283 272.14 93.8857 272.147 94.349C272.159 94.5019 272.159 94.6554 272.147 94.8082L265.369 172.188C265.262 173.251 264.768 174.238 263.98 174.961C263.192 175.683 262.165 176.091 261.096 176.106Z" fill="#263238"/>
<path d="M151.12 163.822L150.354 172.187C150.301 172.647 150.339 173.113 150.467 173.559C150.594 174.004 150.809 174.419 151.098 174.782C151.387 175.144 151.744 175.445 152.15 175.668C152.556 175.892 153.003 176.033 153.463 176.083C153.616 176.098 153.77 176.098 153.923 176.083H261.065C262.132 176.066 263.156 175.657 263.941 174.934C264.726 174.212 265.218 173.226 265.323 172.164L266.089 163.799L151.12 163.822Z" fill="#407BFF"/>
<path opacity="0.7" d="M151.12 163.822L150.354 172.187C150.301 172.647 150.339 173.113 150.467 173.559C150.594 174.004 150.809 174.419 151.098 174.782C151.387 175.144 151.744 175.445 152.15 175.668C152.556 175.892 153.003 176.033 153.463 176.083C153.616 176.098 153.77 176.098 153.923 176.083H261.065C262.132 176.066 263.156 175.657 263.941 174.934C264.726 174.212 265.218 173.226 265.323 172.164L266.089 163.799L151.12 163.822Z" fill="white"/>
<path d="M262.306 161.457H155.309C155.058 161.462 154.808 161.418 154.575 161.326C154.341 161.235 154.127 161.098 153.947 160.923C153.766 160.749 153.621 160.541 153.521 160.311C153.421 160.081 153.368 159.833 153.364 159.582C153.356 159.501 153.356 159.419 153.364 159.337L158.962 95.39C159.02 94.8172 159.286 94.2853 159.709 93.8948C160.132 93.5042 160.684 93.282 161.26 93.2699H268.279C268.531 93.2648 268.78 93.3094 269.014 93.401C269.248 93.4926 269.461 93.6294 269.642 93.8036C269.823 93.9779 269.967 94.1861 270.067 94.4163C270.167 94.6465 270.221 94.8942 270.225 95.1451C270.225 95.2216 270.225 95.3058 270.225 95.39L264.626 159.337C264.566 159.913 264.297 160.447 263.869 160.838C263.442 161.229 262.885 161.449 262.306 161.457Z" fill="#407BFF"/>
<path d="M262.306 161.457H155.309C155.058 161.462 154.808 161.418 154.575 161.326C154.341 161.235 154.127 161.098 153.947 160.923C153.766 160.749 153.621 160.541 153.521 160.311C153.421 160.081 153.368 159.833 153.364 159.582C153.356 159.501 153.356 159.419 153.364 159.337L158.962 95.39C159.02 94.8172 159.286 94.2853 159.709 93.8948C160.132 93.5042 160.684 93.282 161.26 93.2699H268.279C268.531 93.2648 268.78 93.3094 269.014 93.401C269.248 93.4926 269.461 93.6294 269.642 93.8036C269.823 93.9779 269.967 94.1861 270.067 94.4163C270.167 94.6465 270.221 94.8942 270.225 95.1451C270.225 95.2216 270.225 95.3058 270.225 95.39L264.626 159.337C264.566 159.913 264.297 160.447 263.869 160.838C263.442 161.229 262.885 161.449 262.306 161.457Z" fill="#F47E20"/>
<path d="M270.929 90.9051H268.555C269.018 90.895 269.479 90.9766 269.911 91.1453C270.343 91.3139 270.737 91.5663 271.071 91.8878C271.405 92.2094 271.672 92.5938 271.857 93.0189C272.041 93.4439 272.14 93.9013 272.147 94.3646C272.158 94.5175 272.158 94.671 272.147 94.8239L265.369 172.188C265.264 173.249 264.772 174.235 263.987 174.958C263.202 175.68 262.178 176.089 261.111 176.107H263.485C264.551 176.089 265.574 175.68 266.358 174.957C267.142 174.235 267.632 173.249 267.735 172.188L274.513 94.8162C274.564 94.3563 274.524 93.8909 274.395 93.4465C274.266 93.0021 274.051 92.5875 273.761 92.2264C273.472 91.8653 273.114 91.5648 272.708 91.342C272.302 91.1192 271.856 90.9786 271.396 90.9281L270.929 90.9051Z" fill="#407BFF"/>
<path opacity="0.2" d="M270.929 90.9051H268.555C269.018 90.895 269.479 90.9766 269.911 91.1453C270.343 91.3139 270.737 91.5663 271.071 91.8878C271.405 92.2094 271.672 92.5938 271.857 93.0189C272.041 93.4439 272.14 93.9013 272.147 94.3646C272.158 94.5175 272.158 94.671 272.147 94.8239L265.369 172.188C265.264 173.249 264.772 174.235 263.987 174.958C263.202 175.68 262.178 176.089 261.111 176.107H263.485C264.551 176.089 265.574 175.68 266.358 174.957C267.142 174.235 267.632 173.249 267.735 172.188L274.513 94.8162C274.564 94.3563 274.524 93.8909 274.395 93.4465C274.266 93.0021 274.051 92.5875 273.761 92.2264C273.472 91.8653 273.114 91.5648 272.708 91.342C272.302 91.1192 271.856 90.9786 271.396 90.9281L270.929 90.9051Z" fill="white"/>
<path d="M181.8 160.982H230.891L236.527 96.5762H187.444L181.8 160.982Z" fill="#407BFF"/>
<path opacity="0.7" d="M181.8 160.982H230.891L236.527 96.5762H187.444L181.8 160.982Z" fill="white"/>
<path d="M199.521 104.88H224.251C224.409 104.877 224.561 104.817 224.678 104.71C224.796 104.603 224.869 104.456 224.886 104.299C224.893 104.226 224.884 104.152 224.86 104.082C224.836 104.013 224.798 103.949 224.749 103.895C224.699 103.841 224.639 103.798 224.571 103.769C224.504 103.739 224.431 103.724 224.358 103.725H199.621C199.463 103.727 199.312 103.787 199.195 103.892C199.078 103.998 199.004 104.142 198.985 104.299C198.978 104.373 198.986 104.448 199.009 104.519C199.033 104.59 199.071 104.655 199.122 104.71C199.173 104.765 199.235 104.809 199.303 104.838C199.372 104.867 199.446 104.882 199.521 104.88Z" fill="#263238"/>
<path d="M191.204 136.39H221.494C221.652 136.387 221.805 136.327 221.922 136.22C222.039 136.112 222.113 135.966 222.129 135.808C222.136 135.735 222.127 135.66 222.103 135.59C222.078 135.52 222.04 135.456 221.989 135.402C221.939 135.348 221.877 135.305 221.809 135.276C221.741 135.247 221.667 135.233 221.593 135.234H191.304C191.147 135.236 190.996 135.295 190.88 135.401C190.764 135.507 190.691 135.652 190.676 135.808C190.667 135.882 190.674 135.957 190.697 136.028C190.72 136.099 190.757 136.165 190.808 136.22C190.858 136.275 190.919 136.319 190.987 136.348C191.056 136.377 191.13 136.392 191.204 136.39Z" fill="#263238"/>
<path d="M190.906 139.759H225.499C225.657 139.758 225.81 139.698 225.926 139.59C226.042 139.482 226.114 139.335 226.127 139.178C226.135 139.104 226.127 139.03 226.103 138.96C226.08 138.89 226.042 138.826 225.992 138.772C225.942 138.717 225.881 138.674 225.814 138.645C225.746 138.616 225.672 138.602 225.599 138.604H191.013C190.855 138.606 190.704 138.666 190.587 138.771C190.47 138.877 190.396 139.021 190.377 139.178C190.37 139.251 190.378 139.326 190.401 139.396C190.424 139.467 190.462 139.531 190.512 139.586C190.562 139.641 190.622 139.685 190.69 139.715C190.758 139.745 190.832 139.76 190.906 139.759Z" fill="#263238"/>
<path d="M190.615 143.126H225.208C225.365 143.122 225.516 143.06 225.631 142.953C225.747 142.846 225.819 142.701 225.836 142.545C225.845 142.471 225.838 142.396 225.815 142.325C225.792 142.254 225.755 142.189 225.704 142.133C225.654 142.078 225.593 142.035 225.525 142.005C225.456 141.976 225.382 141.961 225.308 141.963H190.714C190.556 141.966 190.405 142.027 190.289 142.134C190.173 142.242 190.101 142.388 190.086 142.545C190.077 142.619 190.085 142.694 190.107 142.765C190.13 142.836 190.168 142.901 190.218 142.956C190.268 143.011 190.329 143.055 190.398 143.084C190.466 143.114 190.54 143.128 190.615 143.126Z" fill="#263238"/>
<path d="M190.316 146.501H224.909C225.068 146.5 225.22 146.44 225.336 146.332C225.452 146.224 225.524 146.077 225.537 145.92C225.546 145.846 225.539 145.771 225.516 145.7C225.493 145.629 225.456 145.564 225.406 145.509C225.356 145.453 225.294 145.41 225.226 145.38C225.157 145.351 225.083 145.336 225.009 145.338H190.423C190.264 145.341 190.112 145.402 189.995 145.509C189.878 145.616 189.804 145.762 189.787 145.92C189.78 145.993 189.788 146.068 189.811 146.138C189.834 146.209 189.872 146.273 189.922 146.328C189.972 146.383 190.033 146.427 190.1 146.457C190.168 146.487 190.242 146.502 190.316 146.501Z" fill="#263238"/>
<path d="M190.056 149.863H220.345C220.504 149.86 220.656 149.799 220.773 149.692C220.89 149.585 220.964 149.439 220.981 149.281C220.988 149.207 220.98 149.133 220.957 149.062C220.934 148.992 220.896 148.927 220.846 148.872C220.796 148.817 220.735 148.774 220.668 148.744C220.6 148.714 220.526 148.699 220.452 148.699H190.124C189.967 148.702 189.815 148.763 189.7 148.87C189.584 148.978 189.512 149.124 189.496 149.281C189.487 149.358 189.495 149.435 189.519 149.509C189.544 149.582 189.584 149.649 189.638 149.704C189.691 149.76 189.757 149.803 189.829 149.831C189.901 149.858 189.979 149.869 190.056 149.863Z" fill="#263238"/>
<path d="M189.726 153.222H224.319C224.477 153.221 224.63 153.162 224.747 153.056C224.864 152.95 224.938 152.805 224.955 152.648C224.963 152.574 224.954 152.499 224.931 152.428C224.907 152.357 224.869 152.292 224.818 152.237C224.767 152.182 224.706 152.138 224.637 152.109C224.568 152.079 224.494 152.065 224.419 152.067H189.833C189.675 152.069 189.522 152.13 189.405 152.237C189.288 152.344 189.214 152.49 189.198 152.648C189.19 152.722 189.198 152.796 189.221 152.866C189.245 152.936 189.282 153 189.332 153.054C189.382 153.109 189.443 153.152 189.511 153.181C189.579 153.209 189.652 153.224 189.726 153.222Z" fill="#263238"/>
<path d="M189.435 156.589H224.028C224.185 156.587 224.335 156.527 224.451 156.421C224.567 156.315 224.64 156.171 224.656 156.015C224.665 155.941 224.658 155.866 224.635 155.796C224.613 155.725 224.575 155.659 224.525 155.604C224.475 155.549 224.413 155.505 224.345 155.476C224.276 155.446 224.203 155.432 224.128 155.434H189.535C189.377 155.437 189.225 155.498 189.11 155.605C188.994 155.712 188.922 155.858 188.907 156.015C188.899 156.089 188.907 156.163 188.93 156.233C188.954 156.303 188.991 156.367 189.041 156.421C189.091 156.476 189.152 156.519 189.22 156.548C189.288 156.577 189.361 156.591 189.435 156.589Z" fill="#263238"/>
<path d="M202.079 108.73H221.019C221.177 108.729 221.329 108.668 221.446 108.561C221.562 108.453 221.634 108.306 221.647 108.148C221.656 108.074 221.648 107.999 221.626 107.928C221.603 107.857 221.565 107.792 221.515 107.737C221.465 107.682 221.404 107.638 221.335 107.609C221.267 107.579 221.193 107.565 221.118 107.567H202.179C202.022 107.571 201.871 107.633 201.756 107.74C201.64 107.847 201.568 107.992 201.551 108.148C201.542 108.222 201.549 108.297 201.572 108.368C201.595 108.439 201.632 108.504 201.683 108.559C201.733 108.615 201.794 108.658 201.862 108.688C201.931 108.717 202.005 108.732 202.079 108.73Z" fill="#263238"/>
<path d="M204.836 112.572H217.626C217.784 112.569 217.935 112.51 218.052 112.404C218.169 112.298 218.243 112.154 218.262 111.998C218.269 111.923 218.261 111.848 218.237 111.777C218.214 111.706 218.175 111.641 218.125 111.586C218.074 111.531 218.012 111.488 217.943 111.458C217.875 111.429 217.8 111.415 217.726 111.416H204.936C204.778 111.417 204.625 111.478 204.509 111.585C204.393 111.693 204.321 111.84 204.308 111.998C204.3 112.071 204.308 112.145 204.332 112.215C204.355 112.285 204.393 112.35 204.443 112.404C204.493 112.458 204.554 112.501 204.621 112.53C204.689 112.559 204.763 112.573 204.836 112.572Z" fill="#263238"/>
<g opacity="0.4">
<path d="M199.521 104.88H224.251C224.409 104.877 224.561 104.817 224.678 104.71C224.796 104.603 224.869 104.456 224.886 104.299C224.893 104.226 224.884 104.152 224.86 104.082C224.836 104.013 224.798 103.949 224.749 103.895C224.699 103.841 224.639 103.798 224.571 103.769C224.504 103.739 224.431 103.724 224.358 103.725H199.621C199.463 103.727 199.312 103.787 199.195 103.892C199.078 103.998 199.004 104.142 198.985 104.299C198.978 104.373 198.986 104.448 199.009 104.519C199.033 104.59 199.071 104.655 199.122 104.71C199.173 104.765 199.235 104.809 199.303 104.838C199.372 104.867 199.446 104.882 199.521 104.88Z" fill="white"/>
<path d="M191.204 136.39H221.493C221.652 136.387 221.804 136.327 221.921 136.22C222.038 136.112 222.112 135.966 222.129 135.808C222.135 135.735 222.126 135.66 222.102 135.59C222.078 135.52 222.039 135.456 221.989 135.402C221.938 135.348 221.877 135.305 221.809 135.276C221.74 135.247 221.667 135.233 221.593 135.234H191.304C191.146 135.236 190.995 135.295 190.879 135.401C190.763 135.507 190.691 135.652 190.676 135.808C190.667 135.882 190.674 135.957 190.697 136.028C190.719 136.099 190.757 136.165 190.807 136.22C190.857 136.275 190.919 136.319 190.987 136.348C191.055 136.377 191.129 136.392 191.204 136.39Z" fill="white"/>
<path d="M190.906 139.759H225.499C225.657 139.758 225.81 139.698 225.926 139.59C226.042 139.482 226.114 139.335 226.127 139.178C226.135 139.104 226.127 139.03 226.103 138.96C226.08 138.89 226.042 138.826 225.992 138.772C225.942 138.717 225.881 138.674 225.814 138.645C225.746 138.616 225.672 138.602 225.599 138.604H191.013C190.855 138.606 190.704 138.666 190.587 138.771C190.47 138.877 190.396 139.021 190.377 139.178C190.37 139.251 190.378 139.326 190.401 139.396C190.424 139.467 190.462 139.531 190.512 139.586C190.562 139.641 190.622 139.685 190.69 139.715C190.758 139.745 190.832 139.76 190.906 139.759Z" fill="white"/>
<path d="M190.615 143.126H225.208C225.365 143.122 225.516 143.06 225.631 142.953C225.747 142.846 225.819 142.701 225.836 142.545C225.845 142.471 225.838 142.396 225.815 142.325C225.792 142.254 225.755 142.189 225.704 142.133C225.654 142.078 225.593 142.035 225.525 142.005C225.456 141.976 225.382 141.961 225.308 141.963H190.714C190.556 141.966 190.405 142.027 190.289 142.134C190.173 142.242 190.101 142.388 190.086 142.545C190.077 142.619 190.085 142.694 190.107 142.765C190.13 142.836 190.168 142.901 190.218 142.956C190.268 143.011 190.329 143.055 190.398 143.084C190.466 143.114 190.54 143.128 190.615 143.126Z" fill="white"/>
<path d="M190.316 146.501H224.909C225.068 146.5 225.22 146.44 225.336 146.332C225.452 146.224 225.524 146.077 225.537 145.92C225.546 145.846 225.539 145.771 225.516 145.7C225.493 145.629 225.456 145.564 225.406 145.509C225.356 145.453 225.294 145.41 225.226 145.38C225.157 145.351 225.083 145.336 225.009 145.338H190.423C190.264 145.341 190.112 145.402 189.995 145.509C189.878 145.616 189.804 145.762 189.787 145.92C189.78 145.993 189.788 146.068 189.811 146.138C189.834 146.209 189.872 146.273 189.922 146.328C189.972 146.383 190.033 146.427 190.1 146.457C190.168 146.487 190.242 146.502 190.316 146.501Z" fill="white"/>
<path d="M190.056 149.861H220.345C220.504 149.858 220.656 149.797 220.773 149.69C220.89 149.583 220.964 149.437 220.981 149.279C220.988 149.205 220.98 149.131 220.957 149.06C220.934 148.99 220.896 148.925 220.846 148.87C220.796 148.816 220.735 148.772 220.668 148.742C220.6 148.712 220.526 148.697 220.452 148.697H190.124C189.967 148.7 189.815 148.761 189.7 148.869C189.584 148.976 189.512 149.122 189.496 149.279C189.487 149.356 189.495 149.433 189.519 149.507C189.544 149.58 189.584 149.647 189.638 149.702C189.691 149.758 189.757 149.801 189.829 149.829C189.901 149.856 189.979 149.867 190.056 149.861Z" fill="white"/>
<path d="M189.726 153.222H224.319C224.477 153.221 224.63 153.162 224.747 153.056C224.864 152.95 224.938 152.805 224.955 152.648C224.963 152.574 224.954 152.499 224.931 152.428C224.907 152.357 224.869 152.292 224.818 152.237C224.767 152.182 224.706 152.138 224.637 152.109C224.568 152.079 224.494 152.065 224.419 152.067H189.833C189.675 152.069 189.522 152.13 189.405 152.237C189.288 152.344 189.214 152.49 189.198 152.648C189.19 152.722 189.198 152.796 189.221 152.866C189.245 152.936 189.282 153 189.332 153.054C189.382 153.109 189.443 153.152 189.511 153.181C189.579 153.209 189.652 153.224 189.726 153.222Z" fill="white"/>
<path d="M189.435 156.589H224.028C224.185 156.587 224.335 156.527 224.451 156.421C224.567 156.315 224.64 156.171 224.656 156.015C224.665 155.941 224.658 155.866 224.635 155.796C224.613 155.725 224.575 155.659 224.525 155.604C224.475 155.549 224.413 155.505 224.345 155.476C224.276 155.446 224.203 155.432 224.128 155.434H189.535C189.377 155.437 189.225 155.498 189.11 155.605C188.994 155.712 188.922 155.858 188.907 156.015C188.899 156.089 188.907 156.163 188.93 156.233C188.954 156.303 188.991 156.367 189.041 156.421C189.091 156.476 189.152 156.519 189.22 156.548C189.288 156.577 189.361 156.591 189.435 156.589Z" fill="white"/>
<path d="M202.079 108.73H221.019C221.177 108.729 221.329 108.668 221.446 108.561C221.562 108.453 221.634 108.306 221.647 108.148C221.656 108.074 221.648 107.999 221.626 107.928C221.603 107.857 221.565 107.792 221.515 107.737C221.465 107.682 221.404 107.638 221.335 107.609C221.267 107.579 221.193 107.565 221.118 107.567H202.179C202.022 107.571 201.871 107.633 201.756 107.74C201.64 107.847 201.568 107.992 201.551 108.148C201.542 108.222 201.549 108.297 201.572 108.368C201.595 108.439 201.632 108.504 201.683 108.559C201.733 108.615 201.794 108.658 201.862 108.688C201.931 108.717 202.005 108.732 202.079 108.73Z" fill="white"/>
<path d="M204.836 112.572H217.626C217.784 112.569 217.935 112.51 218.052 112.404C218.169 112.298 218.243 112.154 218.262 111.998C218.269 111.923 218.261 111.848 218.237 111.777C218.214 111.706 218.175 111.641 218.125 111.586C218.074 111.531 218.012 111.488 217.943 111.458C217.875 111.429 217.8 111.415 217.726 111.416H204.936C204.778 111.417 204.625 111.478 204.509 111.585C204.393 111.693 204.321 111.84 204.308 111.998C204.3 112.071 204.308 112.145 204.332 112.215C204.355 112.285 204.393 112.35 204.443 112.404C204.493 112.458 204.554 112.501 204.621 112.53C204.689 112.559 204.763 112.573 204.836 112.572Z" fill="white"/>
</g>
<path opacity="0.5" d="M191.12 130.759H226.87L228.065 117.051H192.315L191.12 130.759Z" fill="white"/>
<path d="M257.068 261.98H117.515V291.065H257.114C255.858 281.412 255.842 271.638 257.068 261.98Z" fill="#407BFF"/>
<path opacity="0.7" d="M257.068 261.98H117.515V291.065H257.114C255.858 281.412 255.842 271.638 257.068 261.98Z" fill="white"/>
<path d="M142.941 292.597H99.0804L98.6362 292.146C96.5579 290.07 94.9092 287.606 93.7844 284.893C92.6595 282.18 92.0806 279.273 92.0806 276.337C92.0806 273.4 92.6595 270.493 93.7844 267.78C94.9092 265.068 96.5579 262.603 98.6362 260.528L99.0804 260.084H142.941L140.329 262.694C136.711 266.313 134.678 271.22 134.678 276.337C134.678 281.453 136.711 286.36 140.329 289.98L142.941 292.597Z" fill="#407BFF"/>
<g opacity="0.3">
<path d="M142.941 292.597H99.0804L98.6362 292.146C96.5579 290.07 94.9092 287.606 93.7844 284.893C92.6595 282.18 92.0806 279.273 92.0806 276.337C92.0806 273.4 92.6595 270.493 93.7844 267.78C94.9092 265.068 96.5579 262.603 98.6362 260.528L99.0804 260.084H142.941L140.329 262.694C136.711 266.313 134.678 271.22 134.678 276.337C134.678 281.453 136.711 286.36 140.329 289.98L142.941 292.597Z" fill="black"/>
</g>
<path d="M258.499 292.595H140.038L139.908 292.465C135.763 288.412 133.302 282.946 133.015 277.158C132.902 274.085 133.428 271.022 134.559 268.162C135.69 265.302 137.401 262.707 139.586 260.542L140.038 260.098H258.499C258.906 260.098 259.295 260.259 259.582 260.546C259.87 260.833 260.031 261.222 260.031 261.628C260.031 262.034 259.87 262.424 259.582 262.711C259.295 262.998 258.906 263.159 258.499 263.159H141.324C137.974 266.737 136.11 271.454 136.11 276.354C136.11 281.254 137.974 285.971 141.324 289.549H258.499C258.906 289.549 259.295 289.711 259.582 289.998C259.87 290.285 260.031 290.674 260.031 291.08C260.027 291.483 259.864 291.869 259.577 292.153C259.29 292.436 258.903 292.595 258.499 292.595Z" fill="#407BFF"/>
<path d="M246.116 272.788H239.415C239.11 272.788 238.818 272.667 238.603 272.452C238.387 272.237 238.266 271.945 238.266 271.64C238.266 271.336 238.387 271.044 238.603 270.828C238.818 270.613 239.11 270.492 239.415 270.492H246.116C246.421 270.492 246.713 270.613 246.928 270.828C247.144 271.044 247.265 271.336 247.265 271.64C247.265 271.945 247.144 272.237 246.928 272.452C246.713 272.667 246.421 272.788 246.116 272.788Z" fill="white"/>
<path d="M230.646 272.788H168.382C168.077 272.788 167.785 272.667 167.57 272.452C167.354 272.237 167.233 271.945 167.233 271.64C167.233 271.336 167.354 271.044 167.57 270.828C167.785 270.613 168.077 270.492 168.382 270.492H230.646C230.95 270.492 231.243 270.613 231.458 270.828C231.673 271.044 231.795 271.336 231.795 271.64C231.795 271.945 231.673 272.237 231.458 272.452C231.243 272.667 230.95 272.788 230.646 272.788Z" fill="white"/>
<path d="M159.958 272.788H146.173C145.868 272.788 145.576 272.667 145.36 272.452C145.145 272.237 145.024 271.945 145.024 271.64C145.024 271.336 145.145 271.044 145.36 270.828C145.576 270.613 145.868 270.492 146.173 270.492H159.958C160.263 270.492 160.555 270.613 160.77 270.828C160.986 271.044 161.107 271.336 161.107 271.64C161.107 271.945 160.986 272.237 160.77 272.452C160.555 272.667 160.263 272.788 159.958 272.788Z" fill="white"/>
<path d="M246.116 282.517H187.145C186.841 282.517 186.548 282.396 186.333 282.181C186.118 281.965 185.997 281.673 185.997 281.369C185.997 281.064 186.118 280.772 186.333 280.557C186.548 280.342 186.841 280.221 187.145 280.221H246.116C246.42 280.221 246.713 280.342 246.928 280.557C247.144 280.772 247.265 281.064 247.265 281.369C247.265 281.673 247.144 281.965 246.928 282.181C246.713 282.396 246.42 282.517 246.116 282.517Z" fill="white"/>
<path d="M178.568 282.517H146.173C145.868 282.517 145.576 282.396 145.36 282.181C145.145 281.965 145.024 281.673 145.024 281.369C145.024 281.064 145.145 280.772 145.36 280.557C145.576 280.342 145.868 280.221 146.173 280.221H178.568C178.873 280.221 179.165 280.342 179.38 280.557C179.596 280.772 179.717 281.064 179.717 281.369C179.717 281.673 179.596 281.965 179.38 282.181C179.165 282.396 178.873 282.517 178.568 282.517Z" fill="white"/>
<path d="M253.368 203.27H127.769V229.445H253.414C252.281 220.758 252.266 211.961 253.368 203.27Z" fill="#407BFF"/>
<path opacity="0.8" d="M253.368 203.27H127.769V229.445H253.414C252.281 220.758 252.266 211.961 253.368 203.27Z" fill="white"/>
<path d="M150.653 230.823H111.173L110.767 230.417C108.898 228.549 107.415 226.332 106.403 223.891C105.391 221.45 104.871 218.834 104.871 216.193C104.871 213.551 105.391 210.935 106.403 208.494C107.415 206.054 108.898 203.836 110.767 201.968L111.173 201.562H150.645L148.302 203.905C145.046 207.163 143.218 211.58 143.218 216.185C143.218 220.79 145.046 225.207 148.302 228.465L150.653 230.823Z" fill="#1F61F4"/>
<path d="M254.655 230.823H148.041L147.934 230.693C144.212 227.043 142.007 222.122 141.761 216.916C141.653 214.153 142.12 211.398 143.133 208.825C144.145 206.252 145.681 203.917 147.643 201.968L148.049 201.562H254.655C255.021 201.562 255.371 201.708 255.63 201.966C255.889 202.224 256.034 202.575 256.034 202.94C256.034 203.306 255.889 203.656 255.63 203.914C255.371 204.173 255.021 204.318 254.655 204.318H149.19C146.181 207.536 144.506 211.776 144.506 216.181C144.506 220.586 146.181 224.826 149.19 228.044H254.655C255.021 228.044 255.371 228.19 255.63 228.448C255.889 228.706 256.034 229.057 256.034 229.422C256.037 229.605 256.003 229.787 255.935 229.956C255.868 230.126 255.767 230.281 255.638 230.411C255.51 230.542 255.357 230.645 255.188 230.716C255.019 230.786 254.838 230.823 254.655 230.823Z" fill="#407BFF"/>
<g opacity="0.4">
<path d="M254.655 230.823H148.041L147.934 230.693C144.212 227.043 142.007 222.122 141.761 216.916C141.653 214.153 142.12 211.398 143.133 208.825C144.145 206.252 145.681 203.917 147.643 201.968L148.049 201.562H254.655C255.021 201.562 255.371 201.708 255.63 201.966C255.889 202.224 256.034 202.575 256.034 202.94C256.034 203.306 255.889 203.656 255.63 203.914C255.371 204.173 255.021 204.318 254.655 204.318H149.19C146.181 207.536 144.506 211.776 144.506 216.181C144.506 220.586 146.181 224.826 149.19 228.044H254.655C255.021 228.044 255.371 228.19 255.63 228.448C255.889 228.706 256.034 229.057 256.034 229.422C256.037 229.605 256.003 229.787 255.935 229.956C255.868 230.126 255.767 230.281 255.638 230.411C255.51 230.542 255.357 230.645 255.188 230.716C255.019 230.786 254.838 230.823 254.655 230.823Z" fill="white"/>
</g>
<path d="M243.512 213.027H237.477C237.203 213.027 236.94 212.919 236.746 212.725C236.552 212.531 236.443 212.268 236.443 211.994C236.443 211.859 236.47 211.724 236.522 211.599C236.574 211.473 236.65 211.36 236.746 211.264C236.842 211.168 236.956 211.092 237.082 211.04C237.207 210.988 237.341 210.961 237.477 210.961H243.512C243.648 210.961 243.782 210.988 243.908 211.04C244.033 211.092 244.147 211.168 244.243 211.264C244.339 211.36 244.415 211.473 244.467 211.599C244.519 211.724 244.546 211.859 244.546 211.994C244.546 212.268 244.437 212.531 244.243 212.725C244.049 212.919 243.786 213.027 243.512 213.027Z" fill="white"/>
<path d="M229.55 213.027H173.551C173.415 213.029 173.281 213.002 173.155 212.951C173.029 212.899 172.914 212.823 172.818 212.727C172.722 212.631 172.646 212.517 172.594 212.391C172.543 212.265 172.517 212.13 172.518 211.994C172.517 211.858 172.543 211.723 172.594 211.598C172.646 211.472 172.722 211.357 172.818 211.261C172.914 211.165 173.029 211.089 173.155 211.038C173.281 210.986 173.415 210.96 173.551 210.961H229.55C229.686 210.96 229.821 210.986 229.947 211.038C230.073 211.089 230.188 211.165 230.284 211.261C230.38 211.357 230.456 211.472 230.508 211.598C230.559 211.723 230.585 211.858 230.584 211.994C230.585 212.13 230.559 212.265 230.508 212.391C230.456 212.517 230.38 212.631 230.284 212.727C230.188 212.823 230.073 212.899 229.947 212.951C229.821 213.002 229.686 213.029 229.55 213.027Z" fill="white"/>
<path d="M165.969 213.027H153.563C153.427 213.029 153.292 213.002 153.166 212.951C153.04 212.899 152.926 212.823 152.829 212.727C152.733 212.631 152.657 212.517 152.605 212.391C152.554 212.265 152.528 212.13 152.529 211.994C152.528 211.858 152.554 211.723 152.605 211.598C152.657 211.472 152.733 211.357 152.829 211.261C152.926 211.165 153.04 211.089 153.166 211.038C153.292 210.986 153.427 210.96 153.563 210.961H165.969C166.106 210.96 166.24 210.986 166.366 211.038C166.492 211.089 166.607 211.165 166.703 211.261C166.799 211.357 166.875 211.472 166.927 211.598C166.978 211.723 167.004 211.858 167.003 211.994C167.004 212.13 166.978 212.265 166.927 212.391C166.875 212.517 166.799 212.631 166.703 212.727C166.607 212.823 166.492 212.899 166.366 212.951C166.24 213.002 166.106 213.029 165.969 213.027Z" fill="white"/>
<path d="M243.512 221.754H190.439C190.303 221.755 190.168 221.729 190.042 221.677C189.916 221.626 189.802 221.55 189.705 221.454C189.609 221.358 189.533 221.243 189.481 221.117C189.43 220.992 189.404 220.857 189.405 220.721C189.404 220.585 189.43 220.45 189.481 220.324C189.533 220.198 189.609 220.084 189.705 219.988C189.802 219.892 189.916 219.816 190.042 219.764C190.168 219.713 190.303 219.687 190.439 219.688H243.512C243.786 219.688 244.049 219.796 244.243 219.99C244.437 220.184 244.546 220.447 244.546 220.721C244.546 220.995 244.437 221.258 244.243 221.451C244.049 221.645 243.786 221.754 243.512 221.754Z" fill="white"/>
<path d="M182.68 221.753H153.578C153.443 221.756 153.308 221.732 153.182 221.683C153.056 221.633 152.94 221.56 152.843 221.466C152.745 221.372 152.667 221.26 152.614 221.135C152.56 221.011 152.531 220.878 152.529 220.742C152.528 220.606 152.554 220.471 152.605 220.346C152.657 220.22 152.733 220.106 152.829 220.009C152.926 219.913 153.04 219.837 153.166 219.786C153.292 219.734 153.427 219.708 153.563 219.709H182.665C182.801 219.708 182.936 219.734 183.062 219.786C183.188 219.837 183.302 219.913 183.398 220.009C183.495 220.106 183.571 220.22 183.622 220.346C183.674 220.471 183.7 220.606 183.699 220.742C183.695 221.01 183.586 221.266 183.396 221.455C183.205 221.644 182.949 221.751 182.68 221.753Z" fill="white"/>
<path d="M257.787 232.529H132.188V258.705H257.833C256.7 250.018 256.684 241.221 257.787 232.529Z" fill="#407BFF"/>
<path opacity="0.7" d="M257.787 232.529H132.188V258.705H257.833C256.7 250.018 256.684 241.221 257.787 232.529Z" fill="white"/>
<path d="M155.079 260.083H115.6L115.201 259.677C113.332 257.809 111.849 255.591 110.837 253.151C109.825 250.71 109.305 248.094 109.305 245.452C109.305 242.811 109.825 240.195 110.837 237.754C111.849 235.313 113.332 233.096 115.201 231.228L115.6 230.822H155.079L152.728 233.172C151.113 234.784 149.832 236.698 148.958 238.806C148.084 240.913 147.635 243.171 147.635 245.452C147.635 247.733 148.084 249.992 148.958 252.099C149.832 254.206 151.113 256.121 152.728 257.733L155.079 260.083Z" fill="#407BFF"/>
<path d="M259.082 260.083H152.46L152.345 259.968C148.623 256.318 146.418 251.397 146.173 246.191C146.067 243.429 146.536 240.675 147.548 238.102C148.56 235.53 150.095 233.194 152.054 231.244L152.46 230.838H259.082C259.447 230.84 259.796 230.986 260.054 231.244C260.313 231.502 260.458 231.851 260.46 232.216C260.458 232.58 260.313 232.93 260.054 233.188C259.796 233.445 259.447 233.591 259.082 233.593H153.617C150.602 236.809 148.925 241.05 148.925 245.457C148.925 249.863 150.602 254.104 153.617 257.32H259.082C259.263 257.32 259.442 257.355 259.609 257.425C259.777 257.494 259.929 257.595 260.057 257.723C260.185 257.851 260.286 258.003 260.355 258.17C260.425 258.337 260.46 258.517 260.46 258.698C260.46 259.064 260.315 259.415 260.057 259.674C259.799 259.934 259.448 260.081 259.082 260.083Z" fill="#407BFF"/>
<g opacity="0.3">
<path d="M259.082 260.083H152.46L152.345 259.968C148.623 256.318 146.418 251.397 146.173 246.191C146.067 243.429 146.536 240.675 147.548 238.102C148.56 235.53 150.095 233.194 152.054 231.244L152.46 230.838H259.082C259.447 230.84 259.796 230.986 260.054 231.244C260.313 231.502 260.458 231.851 260.46 232.216C260.458 232.58 260.313 232.93 260.054 233.188C259.796 233.445 259.447 233.591 259.082 233.593H153.617C150.602 236.809 148.925 241.05 148.925 245.457C148.925 249.863 150.602 254.104 153.617 257.32H259.082C259.263 257.32 259.442 257.355 259.609 257.425C259.777 257.494 259.929 257.595 260.057 257.723C260.185 257.851 260.286 258.003 260.355 258.17C260.425 258.337 260.46 258.517 260.46 258.698C260.46 259.064 260.315 259.415 260.057 259.674C259.799 259.934 259.448 260.081 259.082 260.083Z" fill="white"/>
</g>
<path d="M157.982 248.947H164.017C164.291 248.947 164.554 249.056 164.748 249.25C164.942 249.444 165.051 249.706 165.051 249.981C165.049 250.254 164.939 250.516 164.746 250.709C164.552 250.902 164.291 251.012 164.017 251.014H157.982C157.709 251.012 157.447 250.902 157.253 250.709C157.06 250.516 156.95 250.254 156.948 249.981C156.948 249.706 157.057 249.444 157.251 249.25C157.445 249.056 157.708 248.947 157.982 248.947Z" fill="white"/>
<path d="M171.943 248.947H227.942C228.078 248.946 228.213 248.972 228.339 249.024C228.465 249.075 228.579 249.151 228.675 249.248C228.772 249.344 228.848 249.458 228.899 249.584C228.951 249.71 228.977 249.845 228.976 249.981C228.976 250.116 228.949 250.251 228.897 250.376C228.845 250.501 228.769 250.615 228.673 250.711C228.577 250.807 228.463 250.883 228.338 250.935C228.212 250.987 228.078 251.014 227.942 251.014H171.943C171.807 251.014 171.673 250.987 171.547 250.935C171.422 250.883 171.308 250.807 171.212 250.711C171.116 250.615 171.04 250.501 170.988 250.376C170.936 250.251 170.909 250.116 170.909 249.981C170.908 249.845 170.934 249.71 170.986 249.584C171.037 249.458 171.114 249.344 171.21 249.248C171.306 249.151 171.42 249.075 171.546 249.024C171.672 248.972 171.807 248.946 171.943 248.947Z" fill="white"/>
<path d="M235.524 248.947H247.931C248.067 248.946 248.202 248.972 248.328 249.024C248.454 249.076 248.568 249.152 248.664 249.248C248.761 249.344 248.837 249.458 248.888 249.584C248.94 249.71 248.966 249.845 248.965 249.981C248.965 250.116 248.938 250.251 248.886 250.376C248.834 250.501 248.758 250.615 248.662 250.711C248.566 250.807 248.452 250.883 248.327 250.935C248.201 250.987 248.067 251.014 247.931 251.014H235.524C235.388 251.015 235.252 250.989 235.125 250.938C234.998 250.886 234.883 250.81 234.786 250.714C234.688 250.618 234.611 250.504 234.557 250.378C234.504 250.252 234.476 250.117 234.475 249.981C234.475 249.844 234.502 249.708 234.555 249.582C234.608 249.455 234.686 249.341 234.783 249.245C234.881 249.148 234.997 249.073 235.124 249.022C235.251 248.971 235.387 248.945 235.524 248.947Z" fill="white"/>
<path d="M157.982 240.221H211.056C211.192 240.22 211.326 240.246 211.452 240.297C211.578 240.349 211.693 240.425 211.789 240.521C211.885 240.617 211.961 240.732 212.013 240.857C212.064 240.983 212.09 241.118 212.089 241.254C212.089 241.39 212.063 241.524 212.011 241.649C211.959 241.775 211.883 241.889 211.787 241.985C211.691 242.081 211.577 242.157 211.451 242.209C211.326 242.261 211.191 242.287 211.056 242.287H157.982C157.709 242.285 157.447 242.176 157.253 241.982C157.06 241.789 156.95 241.527 156.948 241.254C156.948 240.98 157.057 240.717 157.251 240.523C157.445 240.33 157.708 240.221 157.982 240.221Z" fill="white"/>
<path d="M218.813 240.221H247.915C248.052 240.22 248.186 240.246 248.312 240.297C248.438 240.349 248.553 240.425 248.649 240.521C248.745 240.617 248.821 240.732 248.873 240.857C248.924 240.983 248.95 241.118 248.949 241.254C248.949 241.528 248.84 241.791 248.647 241.985C248.453 242.178 248.19 242.287 247.915 242.287H218.813C218.677 242.287 218.543 242.261 218.418 242.209C218.292 242.157 218.178 242.081 218.082 241.985C217.986 241.889 217.91 241.775 217.858 241.649C217.806 241.524 217.779 241.39 217.779 241.254C217.778 241.118 217.804 240.983 217.856 240.857C217.908 240.732 217.984 240.617 218.08 240.521C218.176 240.425 218.29 240.349 218.416 240.297C218.542 240.246 218.677 240.22 218.813 240.221Z" fill="white"/>
<path d="M192.351 319.021L218.157 315.063L208.662 339.519L192.351 319.021Z" stroke="#FBAA1C" stroke-width="3"/>
<path d="M234.843 2.00035L229.838 20.6809" stroke="#2FAC61" stroke-width="3" stroke-linecap="round"/>
<path d="M223 8.83867L241.68 13.8441" stroke="#2FAC61" stroke-width="3" stroke-linecap="round"/>
<path d="M346.5 146.543C346.5 149.889 343.806 152.586 340.5 152.586C337.194 152.586 334.5 149.889 334.5 146.543C334.5 143.197 337.194 140.5 340.5 140.5C343.806 140.5 346.5 143.197 346.5 146.543Z" stroke="#2FAC8E" stroke-width="3"/>
<circle cx="37.1741" cy="195.174" r="11.6741" stroke="url(#paint0_linear_8087_24707)" stroke-width="3"/>
<defs>
<linearGradient id="paint0_linear_8087_24707" x1="24.5496" y1="198.763" x2="48.9849" y2="207.436" gradientUnits="userSpaceOnUse">
<stop stop-color="#95BEFF"/>
<stop offset="1" stop-color="#0040E6"/>
</linearGradient>
</defs>
</svg>
