<svg width="36" height="37" viewBox="0 0 36 37" fill="none" xmlns="http://www.w3.org/2000/svg">
<rect x="0.5" y="1.13281" width="35" height="35" rx="17.5" stroke="#5483D0" stroke-dasharray="2 2"/>
<path d="M23.9209 17.5887C25.2971 17.3836 26.3567 16.1322 26.3597 14.616C26.3597 13.1217 25.3327 11.8828 23.986 11.6484" stroke="#5483D0" stroke-width="1.5" stroke-linecap="round" stroke-linejoin="round"/>
<path d="M25.7363 21.0977C27.0692 21.309 27.9995 21.804 27.9995 22.8242C27.9995 23.5263 27.5615 23.9825 26.8531 24.2692" stroke="#5483D0" stroke-width="1.5" stroke-linecap="round" stroke-linejoin="round"/>
<path fill-rule="evenodd" clip-rule="evenodd" d="M18 21.5293C14.8292 21.5293 12.1211 22.0389 12.1211 24.0741C12.1211 26.1082 14.8124 26.6325 18 26.6325C21.1707 26.6325 23.8778 26.1281 23.8778 24.0919C23.8778 22.0556 21.1875 21.5293 18 21.5293Z" stroke="#5483D0" stroke-width="1.5" stroke-linecap="round" stroke-linejoin="round"/>
<path fill-rule="evenodd" clip-rule="evenodd" d="M18.0001 18.625C20.0807 18.625 21.7677 16.8368 21.7677 14.6289C21.7677 12.4221 20.0807 10.6328 18.0001 10.6328C15.9195 10.6328 14.2324 12.4221 14.2324 14.6289C14.2246 16.8284 15.8987 18.6177 17.9725 18.625H18.0001Z" stroke="#5483D0" stroke-width="1.5" stroke-linecap="round" stroke-linejoin="round"/>
<path d="M12.0794 17.5887C10.7022 17.3836 9.64358 16.1322 9.64062 14.616C9.64062 13.1217 10.6676 11.8828 12.0143 11.6484" stroke="#5483D0" stroke-width="1.5" stroke-linecap="round" stroke-linejoin="round"/>
<path d="M10.2632 21.0977C8.93032 21.309 8 21.804 8 22.8242C8 23.5263 8.43803 23.9825 9.14637 24.2692" stroke="#5483D0" stroke-width="1.5" stroke-linecap="round" stroke-linejoin="round"/>
</svg>
