<svg width="41" height="30" viewBox="0 0 41 30" fill="none" xmlns="http://www.w3.org/2000/svg">
<path d="M9.6636 0.222656C4.77204 0.222656 0.792969 4.3991 0.792969 9.53335C0.792969 14.4863 4.49615 18.5486 9.14908 18.8293C9.22964 19.7422 9.1692 22.2273 6.9004 25.6843C6.72889 25.9451 6.76002 26.2968 6.97303 26.5204C7.90145 27.4948 8.47523 28.1086 8.87681 28.5378C9.4024 29.099 9.64229 29.3553 9.99324 29.6897C10.1122 29.8031 10.2624 29.8601 10.4132 29.8601C10.5596 29.8601 10.7055 29.8063 10.8233 29.6993C14.7768 26.0886 19.1685 18.6281 18.5331 9.48592C18.1608 4.11851 14.4307 0.222656 9.6636 0.222656ZM10.4193 28.3078C10.249 28.1316 10.0549 27.9241 9.76861 27.6184C9.42071 27.2463 8.94338 26.7363 8.21947 25.9739C10.9729 21.5207 10.4528 18.3488 10.2252 17.8939C10.1171 17.678 9.89555 17.5326 9.6636 17.5326C5.46177 17.5326 2.04303 13.9443 2.04303 9.53335C2.04303 5.12303 5.46177 1.53472 9.6636 1.53472C13.7569 1.53472 16.9626 4.91868 17.2867 9.58072C18.0008 19.8633 12.1784 26.5396 10.4193 28.3078Z" fill="#B6BECB"/>
<path d="M40.7316 9.48592V9.48526C40.358 4.11851 36.6274 0.222656 31.8616 0.222656C26.9699 0.222656 22.9902 4.3991 22.9902 9.53335C22.9902 14.4863 26.694 18.5486 31.3476 18.8293C31.4282 19.7416 31.3671 22.2254 29.0977 25.6843C28.9262 25.9451 28.9573 26.2968 29.1704 26.5204C30.0951 27.491 30.6676 28.1034 31.0693 28.532C31.5972 29.0971 31.8384 29.3546 32.1911 29.6903C32.3101 29.8031 32.4609 29.8601 32.6111 29.8601C32.7576 29.8601 32.9035 29.8063 33.0212 29.6987C36.9747 26.0879 41.3664 18.6275 40.7316 9.48592ZM32.6172 28.3078C32.4456 28.1303 32.2498 27.9215 31.961 27.6127C31.6131 27.2411 31.1376 26.7325 30.4167 25.9739C33.1702 21.52 32.6508 18.3488 32.4237 17.8939C32.3156 17.6787 32.0935 17.5326 31.8616 17.5326C27.659 17.5326 24.2403 13.9443 24.2403 9.53335C24.2403 5.12303 27.659 1.53472 31.8616 1.53472C35.9541 1.53472 39.1605 4.91868 39.4852 9.58137V9.58072C40.1987 19.862 34.3763 26.5396 32.6172 28.3078Z" fill="#B6BECB"/>
</svg>
