<svg width="48" height="49" viewBox="0 0 48 49" fill="none" xmlns="http://www.w3.org/2000/svg">
<rect y="0.222656" width="48" height="48" rx="24" fill="#2F5FAC"/>
<path d="M24.0002 16.584C19.7813 16.584 16.3613 20.0039 16.3613 24.2229C16.3613 28.0354 19.1549 31.1957 22.807 31.7693V26.4305H20.8667V24.2229H22.807V22.54C22.807 20.6257 23.9467 19.5685 25.6922 19.5685C26.5279 19.5685 27.4018 19.7175 27.4018 19.7175V21.5966H26.4393C25.4898 21.5966 25.1942 22.1856 25.1942 22.7898V24.2229H27.3124L26.974 26.4305H25.1942V31.7693C28.8456 31.1964 31.6391 28.0347 31.6391 24.2229C31.6391 20.0039 28.2192 16.584 24.0002 16.584Z" fill="white"/>
</svg>
