<svg width="48" height="49" viewBox="0 0 48 49" fill="none" xmlns="http://www.w3.org/2000/svg">
<rect y="0.222656" width="48" height="48" rx="24" fill="#2F5FAC"/>
<path d="M24.0002 16.584C26.0757 16.584 26.3347 16.5916 27.149 16.6298C27.9625 16.668 28.5163 16.7956 29.0037 16.985C29.5079 17.1791 29.9326 17.4418 30.3573 17.8658C30.7457 18.2477 31.0463 18.7096 31.2381 19.2194C31.4267 19.706 31.5551 20.2606 31.5933 21.0741C31.6292 21.8884 31.6391 22.1474 31.6391 24.2229C31.6391 26.2984 31.6315 26.5573 31.5933 27.3716C31.5551 28.1852 31.4267 28.739 31.2381 29.2263C31.0468 29.7365 30.7462 30.1985 30.3573 30.58C29.9753 30.9683 29.5134 31.2688 29.0037 31.4607C28.5171 31.6494 27.9625 31.7777 27.149 31.8159C26.3347 31.8518 26.0757 31.8618 24.0002 31.8618C21.9247 31.8618 21.6658 31.8541 20.8515 31.8159C20.0379 31.7777 19.4841 31.6494 18.9967 31.4607C18.4867 31.2693 18.0247 30.9687 17.6431 30.58C17.2546 30.1982 16.9541 29.7362 16.7624 29.2263C16.5729 28.7397 16.4454 28.1852 16.4072 27.3716C16.3713 26.5573 16.3613 26.2984 16.3613 24.2229C16.3613 22.1474 16.369 21.8884 16.4072 21.0741C16.4454 20.2598 16.5729 19.7068 16.7624 19.2194C16.9535 18.7093 17.2542 18.2472 17.6431 17.8658C18.0248 17.4771 18.4868 17.1766 18.9967 16.985C19.4841 16.7956 20.0372 16.668 20.8515 16.6298C21.6658 16.5939 21.9247 16.584 24.0002 16.584ZM24.0002 20.4034C22.9872 20.4034 22.0157 20.8058 21.2995 21.5221C20.5832 22.2384 20.1808 23.2099 20.1808 24.2229C20.1808 25.2359 20.5832 26.2073 21.2995 26.9236C22.0157 27.6399 22.9872 28.0423 24.0002 28.0423C25.0132 28.0423 25.9847 27.6399 26.701 26.9236C27.4173 26.2073 27.8197 25.2359 27.8197 24.2229C27.8197 23.2099 27.4173 22.2384 26.701 21.5221C25.9847 20.8058 25.0132 20.4034 24.0002 20.4034ZM28.9655 20.2125C28.9655 19.9592 28.8649 19.7163 28.6858 19.5373C28.5068 19.3582 28.2639 19.2576 28.0106 19.2576C27.7574 19.2576 27.5145 19.3582 27.3354 19.5373C27.1564 19.7163 27.0558 19.9592 27.0558 20.2125C27.0558 20.4657 27.1564 20.7086 27.3354 20.8876C27.5145 21.0667 27.7574 21.1673 28.0106 21.1673C28.2639 21.1673 28.5068 21.0667 28.6858 20.8876C28.8649 20.7086 28.9655 20.4657 28.9655 20.2125ZM24.0002 21.9312C24.608 21.9312 25.1909 22.1726 25.6207 22.6024C26.0504 23.0322 26.2919 23.6151 26.2919 24.2229C26.2919 24.8307 26.0504 25.4136 25.6207 25.8433C25.1909 26.2731 24.608 26.5145 24.0002 26.5145C23.3924 26.5145 22.8095 26.2731 22.3798 25.8433C21.95 25.4136 21.7086 24.8307 21.7086 24.2229C21.7086 23.6151 21.95 23.0322 22.3798 22.6024C22.8095 22.1726 23.3924 21.9312 24.0002 21.9312Z" fill="white"/>
</svg>
