<svg width="48" height="49" viewBox="0 0 48 49" fill="none" xmlns="http://www.w3.org/2000/svg">
<rect y="0.222656" width="48" height="48" rx="24" fill="#2F5FAC"/>
<path d="M31.7627 19.376C31.1795 19.6339 30.5611 19.8033 29.9279 19.8786C30.5953 19.4794 31.0949 18.8512 31.3334 18.111C30.707 18.4837 30.0203 18.745 29.3045 18.8863C28.8237 18.3719 28.1865 18.0307 27.4918 17.9159C26.7971 17.801 26.0839 17.9188 25.4631 18.2511C24.8423 18.5834 24.3487 19.1114 24.059 19.7532C23.7693 20.3949 23.6997 21.1144 23.8611 21.7998C22.5908 21.7361 21.3481 21.406 20.2137 20.8309C19.0793 20.2558 18.0785 19.4486 17.2763 18.4616C16.9924 18.9493 16.8432 19.5037 16.844 20.068C16.844 21.1757 17.4077 22.1542 18.2648 22.7271C17.7576 22.7112 17.2615 22.5742 16.818 22.3276V22.3673C16.8182 23.105 17.0734 23.82 17.5405 24.3909C18.0076 24.9619 18.6578 25.3538 19.3809 25.5001C18.91 25.6277 18.4163 25.6465 17.9371 25.5551C18.141 26.19 18.5383 26.7453 19.0735 27.1433C19.6086 27.5412 20.2548 27.7618 20.9216 27.7742C20.2589 28.2946 19.5002 28.6793 18.6887 28.9064C17.8772 29.1334 17.0289 29.1982 16.1924 29.0972C17.6527 30.0364 19.3527 30.5349 21.0889 30.5333C26.9655 30.5333 30.1792 25.6651 30.1792 21.443C30.1792 21.3055 30.1754 21.1665 30.1693 21.0305C30.7948 20.5784 31.3346 20.0184 31.7635 19.3767L31.7627 19.376Z" fill="white"/>
</svg>
